<svg xmlns="http://www.w3.org/2000/svg" version="1.1" xmlns:xlink="http://www.w3.org/1999/xlink" xmlns:svgjs="http://svgjs.dev/svgjs" width="1000" height="1000" viewBox="0 0 1000 1000"><rect width="1000" height="1000" fill="#000000"></rect><g transform="matrix(0.7,0,0,0.7,149.57575757575756,282.1265587044535)"><svg viewBox="0 0 396 247" data-background-color="#ffffff" preserveAspectRatio="xMidYMid meet" height="623" width="1000" xmlns="http://www.w3.org/2000/svg" xmlns:xlink="http://www.w3.org/1999/xlink"><g id="tight-bounds" transform="matrix(1,0,0,1,0.2400000000000091,-0.09999999999999432)"><svg viewBox="0 0 395.52 247.2" height="247.2" width="395.52"><g><svg viewBox="0 0 395.52 247.2" height="247.2" width="395.52"><g transform="matrix(1,0,0,1,17.06857142857143,0)"><svg viewBox="0 0 361.3828571428571 247.2" height="247.2" width="361.3828571428571"><g><svg viewBox="0 0 361.3828571428571 247.2" height="247.2" width="361.3828571428571"><g><svg viewBox="0 0 361.3828571428571 247.2" height="247.2" width="361.3828571428571"><g><svg viewBox="0 0 361.3828571428571 247.2" height="247.2" width="361.3828571428571"><g id="textblocktransform"><svg viewBox="0 0 361.3828571428571 247.2" height="247.2" width="361.3828571428571" id="textblock"><g><svg viewBox="0 0 361.3828571428571 247.2" height="247.2" width="361.3828571428571"><g transform="matrix(1,0,0,1,0,0)"><svg width="361.3828571428571" viewBox="0.9499998092651367 -39 62.38999938964844 43" height="247.2" data-palette-color="#7a26c1"><path d="M20.15-18.4L17.35-16.8 16.6-18.1 19.4-19.7Q22.85-21.6 22.85-25.75L22.85-25.75Q22.85-33.5 11.05-33.5L11.05-33.5 6.45-33.5 6.45 0 4.95 0 4.95-35 11.05-35Q17.65-35 21-32.58 24.35-30.15 24.35-25.75L24.35-25.75Q24.35-20.75 20.15-18.4L20.15-18.4ZM43.25-14.55L43.25-14.55 50.05 0 48.4 0 41.4-15Q41.5-15.05 42.27-15.43 43.05-15.8 43.35-15.98 43.65-16.15 44.35-16.6 45.05-17.05 45.4-17.48 45.75-17.9 46.17-18.48 46.6-19.05 46.8-19.78 47-20.5 47-21.35L47-21.35Q47-24.5 44-26 41-27.5 36.55-27.5L36.55-27.5 32.55-27.5 32.55 0 31.05 0 31.05-29 36.55-29Q42.45-29 45.47-26.95 48.5-24.9 48.5-21.35L48.5-21.35Q48.5-19.05 46.95-17.28 45.4-15.5 43.25-14.55ZM56.05 0L56.05-2.9 59.34-2.9 59.34 0 56.05 0Z" opacity="1" transform="matrix(1,0,0,1,0,0)" fill="#ffffff" class="wordmark-text-0" data-fill-palette-color="primary" id="text-0"></path></svg></g></svg></g></svg></g></svg></g></svg></g></svg></g></svg></g></svg></g><defs></defs></svg><rect width="395.52" height="247.2" fill="none" stroke="none" visibility="hidden"></rect></g></svg></g></svg>